<svg xmlns="http://www.w3.org/2000/svg" viewBox="0 0 270.69 88"><defs><style>.cls-1{fill:#e15926;}.cls-2{fill:#86c345;}.cls-3{fill:#f7d00e;}.cls-4{fill:#1ea8d3;}</style></defs><g id="Camada" data-name="Camada"><g id="Grade"><path class="cls-1" d="M.39,37.37c0-6.2-.2-11.23-.39-15.68H10.46L11,29h.19c3.48-5.33,9-8.33,16.17-8.33,10.84,0,19.84,9.29,19.84,24,0,17-10.74,25.27-21.49,25.27-5.9,0-10.84-2.52-13.26-6.3H12.3V88H.39ZM12.3,49.08a12.26,12.26,0,0,0,.38,3.29A10.76,10.76,0,0,0,23.14,60.7c7.55,0,12-6.29,12-15.59,0-8.32-4.06-15.1-11.71-15.1a11.09,11.09,0,0,0-10.65,8.81,10.8,10.8,0,0,0-.48,3Z"/><path class="cls-2" d="M62.88,8.52c0,3.58-2.61,6.39-6.78,6.39a6.25,6.25,0,0,1-6.58-6.39A6.36,6.36,0,0,1,56.2,2,6.36,6.36,0,0,1,62.88,8.52ZM50.2,68.83V21.69h12V68.83Z"/><path class="cls-3" d="M79.27,21.69l5.61,8.9c1.55,2.52,2.91,4.84,4.27,7.26h.29c1.35-2.61,2.71-5,4.06-7.45l5.23-8.71h13L95.92,44.34,112,68.83H98.54l-5.81-9.39c-1.55-2.52-2.91-5-4.26-7.65h-.2c-1.35,2.71-2.71,5-4.26,7.65l-5.42,9.39H65.43l16.36-24L66,21.69Z"/><path class="cls-4" d="M143.79,66.8a31.64,31.64,0,0,1-13.65,3c-13.35,0-22.26-9.78-22.26-23.72,0-14.81,10.07-24.78,23.91-24.78,5.71,0,10.46,1.64,12.2,2.9L142.34,28a20.76,20.76,0,0,0-10.94-2.71c-12.48,0-18.87,9.49-18.87,20.42,0,12.2,7.64,20.14,18.39,20.14a25.83,25.83,0,0,0,11.62-2.71Z"/><path class="cls-4" d="M182.75,57.51c0,4.06.09,7.74.38,11.32h-4.36l-.28-8.32h-.2a17.87,17.87,0,0,1-15.88,9.39c-5.9,0-15.87-3-15.87-20.53v-27h4.64V48.5c0,10.07,3.1,17.33,12.3,17.33,6.77,0,11.71-4.74,13.74-9.39a16.52,16.52,0,0,0,.88-5.13V22.36h4.65Z"/><path class="cls-4" d="M187.32,0H192V31.08h.19c3.1-6,8.81-9.78,17-9.78,11.72,0,19.85,9.87,19.85,23.81,0,16.56-10.55,24.79-20.72,24.79-7.55,0-13-3.1-16.65-9.39h-.19l-.39,8.32h-4.16c.29-3.29.38-7.35.38-10.84ZM192,50.92a14,14,0,0,0,.39,3.39A15.71,15.71,0,0,0,207.65,66c10.65,0,16.75-8.71,16.75-20.81,0-10.65-5.81-20-16.36-20-6.78,0-13.26,4.65-15.49,12.39a15.78,15.78,0,0,0-.58,4.07Z"/><path class="cls-4" d="M236.22,45.11c0,14.82,8.13,20.72,17.72,20.72,6.78,0,10.26-1.35,12.88-2.61L268,66.8c-1.75,1-6.49,3-14.62,3-13.36,0-21.69-9.68-21.69-23.33,0-15.49,8.91-25.17,20.91-25.17,15.2,0,18.11,14.33,18.11,21a12.07,12.07,0,0,1-.19,2.8Zm29.63-3.68c.09-6.48-2.62-16.26-13.85-16.26-10.26,0-14.61,9.1-15.49,16.26Z"/></g></g></svg>